<svg xmlns="http://www.w3.org/2000/svg" width="220" height="53" viewBox="0 0 220 53"><defs><mask id="579mb" width="2" height="2.01" x="-1" y="-1"><path fill="#fff" d="M3.8.8h212.4v46.4H3.8z"/><path d="M26.5 1.937h166.844c12.426 0 22.5 10.074 22.5 22.5v.063c0 12.426-10.074 22.5-22.5 22.5H26.5C14.074 47 4 36.926 4 24.5v-.062c0-12.427 10.074-22.5 22.5-22.5z"/></mask><filter id="579ma" width="242.2" height="78.2" x="-11.1" y="-14.1" filterUnits="userSpaceOnUse"><feOffset dy="2" in="SourceGraphic" result="FeOffset1023Out"/><feGaussianBlur in="FeOffset1023Out" result="FeGaussianBlur1024Out" stdDeviation="1.9600000000000002 1.9600000000000002"/></filter></defs><g><g><g filter="url(#579ma)"><path fill="none" stroke="#212121" stroke-opacity=".35" stroke-width=".4" d="M26.5 1.937h166.844c12.426 0 22.5 10.074 22.5 22.5v.063c0 12.426-10.074 22.5-22.5 22.5H26.5C14.074 47 4 36.926 4 24.5v-.062c0-12.427 10.074-22.5 22.5-22.5z" mask="url(&quot;#579mb&quot;)"/><path fill="#212121" fill-opacity=".35" d="M26.5 1.937h166.844c12.426 0 22.5 10.074 22.5 22.5v.063c0 12.426-10.074 22.5-22.5 22.5H26.5C14.074 47 4 36.926 4 24.5v-.062c0-12.427 10.074-22.5 22.5-22.5z"/></g><path fill="#fff" d="M26.5 1.937h166.844c12.426 0 22.5 10.074 22.5 22.5v.063c0 12.426-10.074 22.5-22.5 22.5H26.5C14.074 47 4 36.926 4 24.5v-.062c0-12.427 10.074-22.5 22.5-22.5z"/></g></g></svg>